<svg width="24" height="24" viewBox="0 0 24 24" fill="none" xmlns="http://www.w3.org/2000/svg">
<path d="M16 15L19 11.5844H16.9344C16.7219 8.43125 14.1563 6 10.975 6C7.68125 6 5 8.69063 5 12C5 15.3094 7.68125 18 10.975 18C12.3219 18 13.5937 17.5594 14.6531 16.7281V16.7281C14.7792 16.6289 14.7934 16.4431 14.6838 16.3259L13.7023 15.2762C13.6084 15.1758 13.4541 15.1619 13.3437 15.2438V15.2438C12.6531 15.7531 11.8344 16.0219 10.975 16.0219C8.76875 16.0219 6.97187 14.2188 6.97187 12C6.97187 9.78125 8.76875 7.97813 10.975 7.97813C13.05 7.97813 14.7469 9.54063 14.9563 11.5813H12.6406L16 15Z" fill="white"/>
</svg>
