<svg width="24" height="24" viewBox="0 0 24 24" fill="none" xmlns="http://www.w3.org/2000/svg">
<path d="M22.0001 12.6202C22.0001 12.252 21.702 11.9535 21.3335 11.9535H2.66681C2.39826 11.9535 2.15607 12.1146 2.05222 12.362C1.94871 12.6081 2.0034 12.8943 2.19057 13.087L6.81069 17.8002C7.06851 18.0629 7.49071 18.0671 7.75373 17.8096C8.01609 17.5515 8.02033 17.1303 7.76317 16.8666L4.25372 13.2868H21.3335C21.702 13.2868 22.0001 12.9883 22.0001 12.6202Z" fill="white"/>
<path d="M2 10.0721C2 10.4406 2.2985 10.7388 2.66667 10.7388L21.3333 10.7388C21.6016 10.7388 21.8438 10.578 21.9479 10.3306C21.9831 10.2472 22 10.1593 22 10.0721C22 9.90088 21.9342 9.73226 21.8092 9.6053L17.1895 4.89241C16.9316 4.62939 16.5098 4.62548 16.2467 4.8833C15.9837 5.14046 15.9792 5.56428 16.2376 5.826L19.7461 9.40543L2.66667 9.40543C2.2985 9.40544 2 9.70361 2 10.0721Z" fill="white"/>
</svg>
